<svg width="70" height="69" viewBox="0 0 70 69" fill="none" xmlns="http://www.w3.org/2000/svg">
<path d="M6.35368 12.9168C7.66824 12.9168 8.7637 11.8128 8.7637 10.488C8.7637 9.1632 7.66824 8.0592 6.35368 8.0592C5.03913 8.0592 3.94366 9.1632 3.94366 10.488C3.94366 11.8128 5.03913 12.9168 6.35368 12.9168Z" fill="black"/>
<path d="M8.10641 38.9712H16.9797L12.5978 31.2432L8.10641 38.9712Z" fill="black"/>
<path d="M68.9045 9.27362C68.3568 8.72162 67.3709 8.72162 66.7136 9.27362C65.6182 10.3776 65.5086 11.592 65.5086 12.5856C65.5086 12.9168 65.5086 13.1376 65.6182 13.3584C65.7277 14.352 65.7277 14.6832 65.3991 15.0144C65.0704 15.3456 64.7418 15.3456 63.7559 15.2352C63.5368 15.2352 63.2081 15.1248 62.9891 15.1248C62.0031 15.0144 60.7981 15.2352 59.7027 16.3392C58.6072 17.4432 58.4977 18.6576 58.4977 19.6512C58.4977 19.9824 58.4977 20.2032 58.6072 20.424C58.7168 21.4176 58.7168 21.7488 58.3881 22.08C58.0595 22.4112 57.8404 22.4112 56.7449 22.3008C56.5258 22.3008 56.1972 22.1904 55.9781 22.1904C54.9922 22.08 53.7872 22.3008 52.6917 23.4048C52.144 23.9568 52.144 24.9504 52.6917 25.6128C53.0204 25.944 53.349 26.0544 53.7872 26.0544C54.2254 26.0544 54.554 25.944 54.8826 25.6128C55.2113 25.2816 55.4304 25.2816 56.5258 25.392C57.6213 25.5024 59.2645 25.7232 60.6886 24.288C62.1127 22.8528 61.8936 21.1968 61.784 20.0928C61.6745 19.0992 61.6745 18.768 62.0031 18.4368C62.3318 18.1056 62.6604 18.1056 63.6463 18.216C64.7418 18.3264 66.385 18.5472 67.8091 17.112C69.2332 15.6768 69.0141 14.0208 68.9045 12.9168C68.795 11.9232 68.795 11.592 69.1236 11.2608C69.5618 10.8192 69.5618 9.82562 68.9045 9.27362Z" fill="black"/>
<path d="M68.5759 51.7776L67.2613 50.4528L64.7418 52.992L62.2222 50.4528L60.9077 51.7776L59.4836 53.2128L62.0031 55.752L59.4836 58.1808L62.2222 60.9408L64.7418 58.4016L67.2613 60.9408L70 58.1808L67.4804 55.752L70 53.2128L68.5759 51.7776Z" fill="black"/>
<path d="M3.50548 66.6816H5.47731H7.33959V63.1488H10.9546V61.1616V59.2848H7.33959V55.752H3.50548V59.2848H0V63.1488H3.50548V66.6816Z" fill="black"/>
<path d="M47.4335 2.20801L44.9139 4.74721L42.3944 2.20801L39.7653 4.96801L42.1753 7.50721L39.7653 10.0464L42.3944 12.8064L44.9139 10.2672L47.4335 12.8064L50.1721 10.0464L47.6526 7.50721L50.1721 4.96801L47.4335 2.20801Z" fill="black"/>
<path d="M26.5102 6.1824C28.1534 6.1824 29.5775 4.8576 29.5775 3.0912C29.5775 1.3248 28.2629 0 26.5102 0C24.867 0 23.4429 1.3248 23.4429 3.0912C23.4429 4.8576 24.867 6.1824 26.5102 6.1824Z" fill="black"/>
<path d="M60.1408 34.9968C58.4977 34.9968 57.0735 36.3216 57.0735 38.088C57.0735 39.744 58.3881 41.1792 60.1408 41.1792C61.784 41.1792 63.2081 39.8544 63.2081 38.088C63.2081 36.3216 61.784 34.9968 60.1408 34.9968Z" fill="black"/>
<path d="M6.35368 16.008C9.42097 16.008 11.831 13.5792 11.831 10.488C11.831 7.39682 9.42097 4.96802 6.35368 4.96802C3.28639 4.96802 0.876373 7.39682 0.876373 10.488C0.876373 13.5792 3.28639 16.008 6.35368 16.008ZM6.35368 8.05922C7.66824 8.05922 8.7637 9.16322 8.7637 10.488C8.7637 11.8128 7.66824 12.9168 6.35368 12.9168C5.03913 12.9168 3.94367 11.8128 3.94367 10.488C3.94367 9.16322 5.03913 8.05922 6.35368 8.05922Z" fill="black"/>
<path d="M23.7715 47.2512C25.0861 51.6672 29.1393 54.9792 33.7402 54.9792C39.4366 54.9792 44.1471 50.232 44.1471 44.4912C44.1471 39.0816 39.5462 35.328 36.1502 31.6848C33.7402 29.0352 31.3302 26.3856 28.9202 23.736C28.2629 26.1648 27.6056 28.5936 26.9484 31.0224C26.072 34.0032 25.1956 37.0944 24.3193 40.0752C23.5524 42.3936 23.0047 44.6016 23.7715 47.2512ZM30.4538 29.808L37.0266 37.0944L27.7152 39.4128L30.4538 29.808ZM26.6197 42.9456L39.4366 39.744C40.4225 41.0688 41.0798 42.6144 41.0798 44.3808C41.0798 48.4656 37.7934 51.7776 33.7402 51.7776C29.687 51.7776 26.4006 48.4656 26.4006 44.3808C26.4006 43.9392 26.5102 43.3872 26.6197 42.9456Z" fill="black"/>
<path d="M49.2958 69C49.2958 62.4864 44.0376 57.0768 37.4648 57.0768H29.7966C23.3333 57.0768 17.9656 62.376 17.9656 69H21.0329C21.0329 64.1424 24.9765 60.168 29.7966 60.168H37.4648C42.2848 60.168 46.2285 64.1424 46.2285 69H49.2958Z" fill="black"/>
</svg>
