<svg width="117" height="17" viewBox="0 0 117 17" fill="none" xmlns="http://www.w3.org/2000/svg">
<path d="M0.648594 2.6C0.83526 2.22667 1.12859 1.94 1.52859 1.74C1.94193 1.52667 2.42859 1.42 2.98859 1.42C3.86859 1.42 4.56859 1.74 5.08859 2.38C5.62193 3.00667 5.88859 4.01333 5.88859 5.4V12.54L10.4686 1.82H12.8286L13.3686 11.94L13.3086 12.52L18.0686 1.82H20.8086L14.4086 15H10.1486L9.74859 8.92L7.10859 15H2.28859L1.68859 5.4C1.64859 4.68 1.52859 4.08667 1.32859 3.62C1.14193 3.14 0.91526 2.8 0.648594 2.6ZM30.0133 12.78C30.0133 13.3667 30.3133 13.7467 30.9133 13.92C30.7666 14.4133 30.4066 14.7933 29.8333 15.06C29.3533 15.2867 28.8466 15.4 28.3133 15.4C27.7933 15.4 27.3933 15.3267 27.1133 15.18C26.8466 15.0467 26.6399 14.8667 26.4933 14.64C26.2533 14.2933 26.1333 13.7933 26.1333 13.14C26.1333 12.7533 26.2399 12.0267 26.4533 10.96L26.7333 9.44C26.9599 8.28 27.0733 7.48667 27.0733 7.06C27.0733 6.31333 26.8666 5.94 26.4533 5.94C25.9333 5.94 25.5066 6.32 25.1733 7.08C25.0399 7.37333 24.9266 7.74 24.8333 8.18L23.4733 15L19.4533 15.4L22.2733 0.999999L26.2933 0.599999L26.1333 1.4C25.7599 3.45333 25.4133 4.82667 25.0933 5.52C25.8399 4.77333 26.8999 4.4 28.2733 4.4C29.7266 4.4 30.5866 4.88 30.8533 5.84C30.9466 6.14667 30.9933 6.43333 30.9933 6.7C30.9933 6.96667 30.9799 7.20667 30.9533 7.42C30.9399 7.62 30.8999 7.90667 30.8333 8.28L30.5733 9.72L30.1133 11.98C30.0466 12.2867 30.0133 12.5533 30.0133 12.78ZM40.6314 11.62C40.9647 11.8467 41.1314 12.2133 41.1314 12.72C41.1314 13.2133 41.0047 13.62 40.7514 13.94C40.4981 14.26 40.1647 14.5267 39.7514 14.74C38.8981 15.18 38.0114 15.4 37.0914 15.4C36.1714 15.4 35.4381 15.3 34.8914 15.1C34.3581 14.9 33.9114 14.6133 33.5514 14.24C32.8447 13.5333 32.4914 12.5333 32.4914 11.24C32.4914 9.22667 33.0381 7.60667 34.1314 6.38C35.3047 5.06 36.9114 4.4 38.9514 4.4C40.2181 4.4 41.1647 4.66667 41.7914 5.2C42.2581 5.6 42.4914 6.12667 42.4914 6.78C42.4914 9.12667 40.4647 10.3 36.4114 10.3C36.3581 10.6467 36.3314 10.9667 36.3314 11.26C36.3314 11.8733 36.4647 12.3 36.7314 12.54C37.0114 12.7667 37.4047 12.88 37.9114 12.88C38.4181 12.88 38.9381 12.7667 39.4714 12.54C40.0181 12.3 40.4047 11.9933 40.6314 11.62ZM36.5514 9.44C37.4981 9.44 38.2447 9.14667 38.7914 8.56C39.3381 8 39.6114 7.27333 39.6114 6.38C39.6114 6.07333 39.5514 5.84 39.4314 5.68C39.3247 5.50667 39.1581 5.42 38.9314 5.42C38.7047 5.42 38.4914 5.46667 38.2914 5.56C38.1047 5.64 37.9114 5.82667 37.7114 6.12C37.2181 6.78667 36.8314 7.89333 36.5514 9.44ZM49.4359 9.38C49.9159 8.52667 50.1559 7.66667 50.1559 6.8C50.1559 6.22667 49.9493 5.94 49.5359 5.94C49.2159 5.94 48.8893 6.21333 48.5559 6.76C48.2093 7.30667 47.9826 7.93333 47.8759 8.64L46.8359 15L42.6959 15.4L44.7359 4.8L48.0359 4.4L47.6759 6.42C48.3293 5.07333 49.3893 4.4 50.8559 4.4C51.6293 4.4 52.2226 4.6 52.6359 5C53.0626 5.4 53.2759 6.01333 53.2759 6.84C53.2759 7.65333 53.0026 8.32 52.4559 8.84C51.9226 9.36 51.1959 9.62 50.2759 9.62C49.8759 9.62 49.5959 9.54 49.4359 9.38ZM61.7056 11.62C62.039 11.8467 62.2056 12.2133 62.2056 12.72C62.2056 13.2133 62.079 13.62 61.8256 13.94C61.5723 14.26 61.239 14.5267 60.8256 14.74C59.9723 15.18 59.0856 15.4 58.1656 15.4C57.2456 15.4 56.5123 15.3 55.9656 15.1C55.4323 14.9 54.9856 14.6133 54.6256 14.24C53.919 13.5333 53.5656 12.5333 53.5656 11.24C53.5656 9.22667 54.1123 7.60667 55.2056 6.38C56.379 5.06 57.9856 4.4 60.0256 4.4C61.2923 4.4 62.239 4.66667 62.8656 5.2C63.3323 5.6 63.5656 6.12667 63.5656 6.78C63.5656 9.12667 61.539 10.3 57.4856 10.3C57.4323 10.6467 57.4056 10.9667 57.4056 11.26C57.4056 11.8733 57.539 12.3 57.8056 12.54C58.0856 12.7667 58.479 12.88 58.9856 12.88C59.4923 12.88 60.0123 12.7667 60.5456 12.54C61.0923 12.3 61.479 11.9933 61.7056 11.62ZM57.6256 9.44C58.5723 9.44 59.319 9.14667 59.8656 8.56C60.4123 8 60.6856 7.27333 60.6856 6.38C60.6856 6.07333 60.6256 5.84 60.5056 5.68C60.399 5.50667 60.2323 5.42 60.0056 5.42C59.779 5.42 59.5656 5.46667 59.3656 5.56C59.179 5.64 58.9856 5.82667 58.7856 6.12C58.2923 6.78667 57.9056 7.89333 57.6256 9.44ZM68.1513 15L70.6913 1.8H75.0913L72.5113 15H68.1513ZM75.8592 13C75.8592 12.64 75.9526 12.0067 76.1392 11.1L77.1992 5.7H76.0192L76.0992 5.1C77.6992 4.62 79.2726 3.79333 80.8192 2.62H81.7792L81.2992 4.8H82.8592L82.6792 5.7H81.1392L80.1192 11.1C79.9459 11.9267 79.8592 12.48 79.8592 12.76C79.8592 13.4 80.1392 13.7867 80.6992 13.92C80.5659 14.3733 80.2592 14.7333 79.7792 15C79.2992 15.2667 78.7192 15.4 78.0392 15.4C77.3592 15.4 76.8259 15.1867 76.4392 14.76C76.0526 14.3333 75.8592 13.7467 75.8592 13ZM83.4058 5.74C84.4324 4.63333 84.9458 3.38667 84.9458 2C84.9458 1.57333 84.8724 1.16 84.7258 0.76C84.8858 0.653333 85.1258 0.566666 85.4458 0.5C85.7658 0.42 86.0458 0.38 86.2858 0.38C86.8858 0.38 87.3524 0.546666 87.6858 0.879999C88.0324 1.21333 88.2058 1.66667 88.2058 2.24C88.2058 2.8 88.1058 3.29333 87.9058 3.72C87.7058 4.13333 87.4258 4.5 87.0658 4.82C86.3058 5.51333 85.3724 5.86 84.2658 5.86C84.0524 5.86 83.7658 5.82 83.4058 5.74ZM93.7458 7.98C93.9324 7.48667 94.0258 7.02667 94.0258 6.6C94.0258 5.81333 93.7058 5.42 93.0658 5.42C92.7324 5.42 92.4258 5.57333 92.1458 5.88C91.8791 6.17333 91.7458 6.50667 91.7458 6.88C91.7458 7.14667 91.8524 7.38667 92.0658 7.6C92.3724 7.89333 92.9191 8.28 93.7058 8.76C94.4924 9.24 95.0324 9.68 95.3258 10.08C95.6324 10.4667 95.7858 10.9333 95.7858 11.48C95.7858 12.0133 95.6524 12.5267 95.3858 13.02C95.1324 13.5133 94.7724 13.9333 94.3058 14.28C93.3058 15.0267 92.0058 15.4 90.4058 15.4C89.5391 15.4 88.7724 15.1733 88.1058 14.72C87.4391 14.28 87.1058 13.8 87.1058 13.28C87.1058 12.76 87.2924 12.3467 87.6658 12.04C88.0524 11.7333 88.5258 11.58 89.0858 11.58C89.6458 11.58 90.0991 11.6867 90.4458 11.9C90.2724 12.34 90.1858 12.7067 90.1858 13C90.1858 13.88 90.5591 14.32 91.3058 14.32C91.6258 14.32 91.8924 14.22 92.1058 14.02C92.3191 13.82 92.4258 13.5467 92.4258 13.2C92.4258 12.52 91.8524 11.82 90.7058 11.1C89.7724 10.4867 89.1991 10.06 88.9858 9.82C88.6258 9.39333 88.4458 8.91333 88.4458 8.38C88.4458 7.84667 88.5724 7.32667 88.8258 6.82C89.0791 6.31333 89.4391 5.88 89.9058 5.52C90.8791 4.77333 92.2124 4.4 93.9058 4.4C94.7724 4.4 95.4591 4.57333 95.9658 4.92C96.4858 5.26667 96.7458 5.73333 96.7458 6.32C96.7458 6.90667 96.5658 7.36667 96.2058 7.7C95.8591 8.03333 95.3658 8.2 94.7258 8.2C94.2858 8.2 93.9591 8.12667 93.7458 7.98ZM111.933 11.82C111.933 12.3267 112.107 12.58 112.453 12.58C112.987 12.58 113.46 12.1933 113.873 11.42C114.26 10.66 114.453 9.82667 114.453 8.92C114.453 7.36 114.08 6.22 113.333 5.5C112.587 4.76667 111.433 4.4 109.873 4.4C109.073 4.4 108.307 4.57333 107.573 4.92C106.84 5.26667 106.193 5.75333 105.633 6.38C105.073 6.99333 104.627 7.72667 104.293 8.58C103.96 9.43333 103.793 10.36 103.793 11.36C103.793 12.8133 104.22 13.8533 105.073 14.48C105.927 15.0933 107.16 15.4 108.773 15.4C109.427 15.4 110.06 15.2933 110.673 15.08C111.287 14.88 111.76 14.66 112.093 14.42C112.16 14.46 112.22 14.5467 112.273 14.68C112.34 14.8 112.373 14.9067 112.373 15C112.373 15.5067 112.127 15.9 111.633 16.18C110.7 16.7 109.647 16.96 108.473 16.96C107.3 16.96 106.3 16.8533 105.473 16.64C104.66 16.4267 103.967 16.1067 103.393 15.68C102.18 14.7867 101.573 13.5333 101.573 11.92C101.573 10.6667 101.82 9.5 102.313 8.42C102.807 7.32667 103.467 6.38 104.293 5.58C105.12 4.76667 106.067 4.13333 107.133 3.68C108.213 3.21333 109.26 2.98 110.273 2.98C111.287 2.98 112.16 3.1 112.893 3.34C113.627 3.56667 114.26 3.90667 114.793 4.36C115.953 5.30667 116.533 6.63333 116.533 8.34C116.533 9.91333 116.107 11.2133 115.253 12.24C114.453 13.2 113.453 13.68 112.253 13.68C111.653 13.68 111.193 13.58 110.873 13.38C110.553 13.18 110.347 12.82 110.253 12.3C110.04 12.8333 109.74 13.2 109.353 13.4C108.98 13.5867 108.527 13.68 107.993 13.68C106.287 13.68 105.433 12.6733 105.433 10.66C105.433 9.39333 105.807 8.31333 106.553 7.42C107.313 6.5 108.267 6.04 109.413 6.04C109.853 6.04 110.287 6.12667 110.713 6.3L112.873 6.04L111.953 11.44C111.94 11.5067 111.933 11.5733 111.933 11.64V11.82ZM110.253 6.98C110.093 6.84667 109.893 6.78 109.653 6.78C109.413 6.78 109.18 6.91333 108.953 7.18C108.74 7.44667 108.553 7.81333 108.393 8.28C108.047 9.26667 107.873 10.4533 107.873 11.84C107.873 12.0933 107.927 12.2867 108.033 12.42C108.14 12.5533 108.247 12.62 108.353 12.62C108.62 12.62 108.853 12.4867 109.053 12.22C109.253 11.9533 109.393 11.6067 109.473 11.18L110.253 6.98Z" fill="black"/>
</svg>
